{
    "asset" : {
        "generator" : "Khronos glTF Blender I/O v1.3.48",
        "version" : "2.0"
    },
    "scene" : 0,
    "scenes" : [
        {
            "name" : "Scene",
            "nodes" : [
                0,
                1,
                2,
                3,
                4
            ]
        }
    ],
    "nodes" : [
        {
            "mesh" : 0,
            "name" : "ComputerTower",
            "translation" : [
                -0.40310612320899963,
                0.2509424090385437,
                0.05560997128486633
            ]
        },
        {
            "mesh" : 1,
            "name" : "Monitor",
            "translation" : [
                0.0961594358086586,
                0.18754424154758453,
                -0.00042352909804321826
            ]
        },
        {
            "mesh" : 2,
            "name" : "Mousepad",
            "translation" : [
                0.43232762813568115,
                0.002944329986348748,
                0.12485296279191971
            ]
        },
        {
            "mesh" : 3,
            "name" : "Mouse",
            "translation" : [
                0.4388757050037384,
                0.015299341641366482,
                0.12818551063537598
            ]
        },
        {
            "mesh" : 4,
            "name" : "Collider -colonly"
        }
    ],
    "materials" : [
        {
            "doubleSided" : true,
            "emissiveFactor" : [
                0,
                0,
                0
            ],
            "name" : "ComputerMaterial",
            "pbrMetallicRoughness" : {
                "baseColorTexture" : {
                    "index" : 0,
                    "texCoord" : 0
                },
                "metallicFactor" : 0,
                "roughnessFactor" : 0.5
            }
        }
    ],
    "meshes" : [
        {
            "name" : "Cube.001",
            "primitives" : [
                {
                    "attributes" : {
                        "POSITION" : 0,
                        "NORMAL" : 1,
                        "TEXCOORD_0" : 2
                    },
                    "indices" : 3,
                    "material" : 0
                }
            ]
        },
        {
            "name" : "Cube.002",
            "primitives" : [
                {
                    "attributes" : {
                        "POSITION" : 4,
                        "NORMAL" : 5,
                        "TEXCOORD_0" : 6
                    },
                    "indices" : 7,
                    "material" : 0
                }
            ]
        },
        {
            "name" : "Cube.003",
            "primitives" : [
                {
                    "attributes" : {
                        "POSITION" : 8,
                        "NORMAL" : 9,
                        "TEXCOORD_0" : 10
                    },
                    "indices" : 11,
                    "material" : 0
                }
            ]
        },
        {
            "name" : "Cube.004",
            "primitives" : [
                {
                    "attributes" : {
                        "POSITION" : 12,
                        "NORMAL" : 13,
                        "TEXCOORD_0" : 14
                    },
                    "indices" : 15,
                    "material" : 0
                }
            ]
        },
        {
            "name" : "Cube.005",
            "primitives" : [
                {
                    "attributes" : {
                        "POSITION" : 16,
                        "NORMAL" : 17,
                        "TEXCOORD_0" : 18
                    },
                    "indices" : 19
                }
            ]
        }
    ],
    "textures" : [
        {
            "sampler" : 0,
            "source" : 0
        }
    ],
    "images" : [
        {
            "bufferView" : 4,
            "mimeType" : "image/png",
            "name" : "Palette1"
        }
    ],
    "accessors" : [
        {
            "bufferView" : 0,
            "componentType" : 5126,
            "count" : 302,
            "max" : [
                0.11249980330467224,
                0.24999994039535522,
                0.19439002871513367
            ],
            "min" : [
                -0.11250022053718567,
                -0.2500000596046448,
                -0.30560997128486633
            ],
            "type" : "VEC3"
        },
        {
            "bufferView" : 1,
            "componentType" : 5126,
            "count" : 302,
            "type" : "VEC3"
        },
        {
            "bufferView" : 2,
            "componentType" : 5126,
            "count" : 302,
            "type" : "VEC2"
        },
        {
            "bufferView" : 3,
            "componentType" : 5123,
            "count" : 636,
            "type" : "SCALAR"
        },
        {
            "bufferView" : 5,
            "componentType" : 5126,
            "count" : 136,
            "max" : [
                0.36662930250167847,
                0.3813146948814392,
                0.08526361733675003
            ],
            "min" : [
                -0.36662930250167847,
                -0.1867072731256485,
                -0.08441656082868576
            ],
            "type" : "VEC3"
        },
        {
            "bufferView" : 6,
            "componentType" : 5126,
            "count" : 136,
            "type" : "VEC3"
        },
        {
            "bufferView" : 7,
            "componentType" : 5126,
            "count" : 136,
            "type" : "VEC2"
        },
        {
            "bufferView" : 8,
            "componentType" : 5123,
            "count" : 204,
            "type" : "SCALAR"
        },
        {
            "bufferView" : 9,
            "componentType" : 5126,
            "count" : 24,
            "max" : [
                0.09999996423721313,
                0.0025000006426125765,
                0.1283414363861084
            ],
            "min" : [
                -0.10000002384185791,
                -0.0025000006426125765,
                -0.1283414363861084
            ],
            "type" : "VEC3"
        },
        {
            "bufferView" : 10,
            "componentType" : 5126,
            "count" : 24,
            "type" : "VEC3"
        },
        {
            "bufferView" : 11,
            "componentType" : 5126,
            "count" : 24,
            "type" : "VEC2"
        },
        {
            "bufferView" : 12,
            "componentType" : 5123,
            "count" : 36,
            "type" : "SCALAR"
        },
        {
            "bufferView" : 13,
            "componentType" : 5126,
            "count" : 56,
            "max" : [
                0.041975319385528564,
                0.016665033996105194,
                0.06459978222846985
            ],
            "min" : [
                -0.041975319385528564,
                -0.009779413230717182,
                -0.06459978967905045
            ],
            "type" : "VEC3"
        },
        {
            "bufferView" : 14,
            "componentType" : 5126,
            "count" : 56,
            "type" : "VEC3"
        },
        {
            "bufferView" : 15,
            "componentType" : 5126,
            "count" : 56,
            "type" : "VEC2"
        },
        {
            "bufferView" : 16,
            "componentType" : 5123,
            "count" : 90,
            "type" : "SCALAR"
        },
        {
            "bufferView" : 17,
            "componentType" : 5126,
            "count" : 72,
            "max" : [
                0.4846610724925995,
                0.5797217488288879,
                0.2524999976158142
            ],
            "min" : [
                -0.5222361087799072,
                -0.001935809850692749,
                -0.2524999678134918
            ],
            "type" : "VEC3"
        },
        {
            "bufferView" : 18,
            "componentType" : 5126,
            "count" : 72,
            "type" : "VEC3"
        },
        {
            "bufferView" : 19,
            "componentType" : 5126,
            "count" : 72,
            "type" : "VEC2"
        },
        {
            "bufferView" : 20,
            "componentType" : 5123,
            "count" : 108,
            "type" : "SCALAR"
        }
    ],
    "bufferViews" : [
        {
            "buffer" : 0,
            "byteLength" : 3624,
            "byteOffset" : 0
        },
        {
            "buffer" : 0,
            "byteLength" : 3624,
            "byteOffset" : 3624
        },
        {
            "buffer" : 0,
            "byteLength" : 2416,
            "byteOffset" : 7248
        },
        {
            "buffer" : 0,
            "byteLength" : 1272,
            "byteOffset" : 9664
        },
        {
            "buffer" : 0,
            "byteLength" : 8509,
            "byteOffset" : 10936
        },
        {
            "buffer" : 0,
            "byteLength" : 1632,
            "byteOffset" : 19448
        },
        {
            "buffer" : 0,
            "byteLength" : 1632,
            "byteOffset" : 21080
        },
        {
            "buffer" : 0,
            "byteLength" : 1088,
            "byteOffset" : 22712
        },
        {
            "buffer" : 0,
            "byteLength" : 408,
            "byteOffset" : 23800
        },
        {
            "buffer" : 0,
            "byteLength" : 288,
            "byteOffset" : 24208
        },
        {
            "buffer" : 0,
            "byteLength" : 288,
            "byteOffset" : 24496
        },
        {
            "buffer" : 0,
            "byteLength" : 192,
            "byteOffset" : 24784
        },
        {
            "buffer" : 0,
            "byteLength" : 72,
            "byteOffset" : 24976
        },
        {
            "buffer" : 0,
            "byteLength" : 672,
            "byteOffset" : 25048
        },
        {
            "buffer" : 0,
            "byteLength" : 672,
            "byteOffset" : 25720
        },
        {
            "buffer" : 0,
            "byteLength" : 448,
            "byteOffset" : 26392
        },
        {
            "buffer" : 0,
            "byteLength" : 180,
            "byteOffset" : 26840
        },
        {
            "buffer" : 0,
            "byteLength" : 864,
            "byteOffset" : 27020
        },
        {
            "buffer" : 0,
            "byteLength" : 864,
            "byteOffset" : 27884
        },
        {
            "buffer" : 0,
            "byteLength" : 576,
            "byteOffset" : 28748
        },
        {
            "buffer" : 0,
            "byteLength" : 216,
            "byteOffset" : 29324
        }
    ],
    "samplers" : [
        {
            "magFilter" : 9728,
            "minFilter" : 9984
        }
    ],
    "buffers" : [
        {
            "byteLength" : 29540,
            "uri" : "data:application/octet-stream;base64,"
        }
    ]
}
